<?xml version="1.0" encoding="UTF-8"?>
<svg version="1.1" xmlns="http://www.w3.org/2000/svg" width="702" height="596">
<path d="M0 0 C231.66 0 463.32 0 702 0 C702 196.68 702 393.36 702 596 C470.34 596 238.68 596 0 596 C0 399.32 0 202.64 0 0 Z " fill="#FEFEFE" transform="translate(0,0)"/>
<path d="M0 0 C1.84355324 -0.01029488 1.84355324 -0.01029488 3.72434998 -0.02079773 C7.06768926 -0.03587344 10.41046669 -0.0375843 13.75379777 -0.03185534 C16.55902858 -0.02874422 19.36421003 -0.03487739 22.16943377 -0.04089409 C28.7959411 -0.05489778 35.4223194 -0.05341383 42.04882812 -0.04199219 C48.85174097 -0.03052452 55.65425894 -0.0445731 62.45711976 -0.07138866 C68.32756765 -0.09364994 74.19789254 -0.10015946 80.06837958 -0.09431225 C83.56139222 -0.09096508 87.05415212 -0.09320598 90.54712868 -0.11056328 C94.44954118 -0.12911188 98.35148014 -0.11473871 102.25390625 -0.09765625 C103.38835175 -0.10732422 104.52279724 -0.11699219 105.69161987 -0.12695312 C124.79869999 0.04696051 136.7350987 9.25895944 149.64794922 22.28491211 C151.13770246 23.78323419 152.64532963 25.26179861 154.1550293 26.73999023 C165.51209048 38.00617624 171.60724305 48.90833131 171.72693723 65.14984506 C171.72092719 66.37777153 171.71491714 67.60569799 171.70872498 68.87083435 C171.71290497 70.21218992 171.71838612 71.55354195 171.72504479 72.89488751 C171.73943083 76.55664015 171.7352763 80.21816641 171.72787797 83.87993109 C171.72313159 87.83844243 171.73566907 91.79690583 171.74589539 95.75540161 C171.76305963 103.50083381 171.76392838 111.24618481 171.75868248 118.99163108 C171.75463534 125.28898029 171.7560908 131.58630557 171.76143074 137.88365364 C171.76217916 138.78111519 171.76292758 139.67857674 171.76369869 140.6032341 C171.76523022 142.42662072 171.76676856 144.25000734 171.76831365 146.07339395 C171.78202995 163.15847894 171.77660699 180.24351809 171.76512844 197.32860202 C171.75519564 212.94694181 171.76813909 228.56516314 171.79206263 244.18348467 C171.81646482 260.23569284 171.82605883 276.28784587 171.81940991 292.34007221 C171.81592035 301.34608313 171.81813243 310.35200294 171.83566093 319.3579998 C171.85039686 327.02400319 171.85100014 334.68985131 171.83359002 342.3558517 C171.82508932 346.26412045 171.82290753 350.17211199 171.83824158 354.08036613 C171.85212658 357.66375936 171.84727737 361.24663888 171.82800234 364.83000267 C171.82248885 366.72818207 171.836482 368.62638787 171.85135645 370.524517 C171.69433097 388.8895555 161.92441474 399.18439065 149.66113281 411.48950195 C148.0093931 413.15319842 146.37729304 414.83470453 144.74487305 416.51733398 C138.87810116 422.47493236 133.29591948 427.46272692 125.32104492 430.40405273 C124.40224171 430.74624155 123.48343849 431.08843037 122.53679276 431.44098854 C119.34694153 432.39629712 116.85639117 432.66010708 113.54168701 432.67147827 C111.84712624 432.68427322 111.84712624 432.68427322 110.11833191 432.69732666 C108.28073051 432.6959671 108.28073051 432.6959671 106.40600586 432.69458008 C105.1044606 432.7012973 103.80291534 432.70801453 102.46192932 432.7149353 C98.90179043 432.73255464 95.34174777 432.73728903 91.78156948 432.73856688 C89.55323483 432.73999163 87.32492439 432.74426742 85.09659576 432.74956131 C77.31088212 432.76804993 69.52523682 432.77623361 61.73950195 432.7746582 C54.50152057 432.77345794 47.26383792 432.79454054 40.02593207 432.82614553 C33.79639283 432.85237029 27.56695077 432.86302287 21.33735681 432.86174738 C17.62359874 432.86123946 13.91010619 432.86682779 10.1964035 432.88810349 C6.04861829 432.91121826 1.90149436 432.90192726 -2.24633789 432.88989258 C-3.46330856 432.90113159 -4.68027924 432.91237061 -5.93412781 432.9239502 C-23.42166914 432.79537498 -33.46814478 423.00737213 -45.28222656 411.28125 C-46.86093361 409.72200613 -48.45975457 408.18547695 -50.05981445 406.64819336 C-60.60128493 396.33016616 -66.60315186 385.24972423 -66.9390173 370.27011395 C-66.95383683 367.88085685 -66.95781537 365.49151705 -66.95310974 363.10221863 C-66.95756888 361.76656509 -66.96288514 360.4309142 -66.96897846 359.09526712 C-66.98308732 355.44463806 -66.98482312 351.79409444 -66.98438156 348.14344203 C-66.98603603 344.19853085 -66.99911405 340.25365422 -67.01057434 336.3087616 C-67.03337242 327.69306157 -67.04133897 319.07738625 -67.04640079 310.46166015 C-67.04966307 305.07791959 -67.05618864 299.69418613 -67.06340218 294.3104496 C-67.0829593 279.39148661 -67.09936938 264.47253021 -67.10227871 249.55355358 C-67.10246628 248.59988237 -67.10265385 247.64621116 -67.1028471 246.66364082 C-67.10321334 244.7305125 -67.10357704 242.79738418 -67.10393821 240.86425587 C-67.10412103 239.90471061 -67.10430384 238.94516535 -67.10449219 237.95654297 C-67.10476301 236.51546005 -67.10476301 236.51546005 -67.10503931 235.04526434 C-67.10858146 219.476019 -67.13561037 203.90691191 -67.17299008 188.33771452 C-67.21109866 172.33638865 -67.23043636 156.33513137 -67.23073822 140.33375913 C-67.23132212 131.35617189 -67.23977111 122.37874972 -67.26873589 113.40120506 C-67.29328361 105.7578839 -67.30050964 98.11478808 -67.28548836 90.47143813 C-67.27833395 86.57513633 -67.27911293 82.6792792 -67.30189896 78.78302765 C-67.32259771 75.20932851 -67.31978881 71.63641283 -67.29902411 68.06272117 C-67.29391646 66.17217196 -67.31322472 64.28160414 -67.33368582 62.39115876 C-67.15990236 44.57638436 -57.31363357 33.66402651 -45.30078125 21.65527344 C-43.86810706 20.21820978 -42.45225944 18.76584298 -41.03637695 17.31225586 C-28.69518267 4.91967562 -17.4630954 -0.06892718 0 0 Z " fill="#202020" transform="translate(148.678955078125,80.595947265625)"/>
<path d="M0 0 C0.67423173 -0.00297112 1.34846347 -0.00594224 2.04312646 -0.0090034 C4.3014178 -0.01767186 6.559656 -0.01919709 8.81796265 -0.02069092 C10.43777581 -0.02532052 12.05758788 -0.03034537 13.67739868 -0.03573608 C18.07851893 -0.04885106 22.47962393 -0.05530364 26.88076067 -0.05974674 C29.6327119 -0.06267978 32.38465898 -0.06678509 35.13660812 -0.07125092 C43.75327365 -0.08492536 52.36992967 -0.09459148 60.98660529 -0.09845281 C70.92071419 -0.10292931 80.85468521 -0.12045849 90.7887522 -0.1494534 C98.47470333 -0.1711047 106.16061578 -0.18115898 113.84659708 -0.18249393 C118.43335484 -0.18353976 123.01998298 -0.18940002 127.60670853 -0.20731354 C131.92578371 -0.22385324 136.24463267 -0.22592124 140.56372833 -0.21717453 C142.14306878 -0.21640722 143.72242168 -0.2207062 145.30173111 -0.23063278 C163.0774255 -0.33574552 174.67718554 4.17655908 187.37658691 16.55352783 C188.50879609 17.67625397 189.6374119 18.80261454 190.76254272 19.93243408 C192.46080052 21.62947901 194.18623759 23.29500269 195.91513062 24.96075439 C204.01985047 32.93902302 212.91469266 43.31989773 213.41569901 55.2771616 C213.420161 57.23354258 213.420161 57.23354258 213.42471313 59.22944641 C213.42768426 59.9559099 213.43065538 60.68237339 213.43371654 61.43085092 C213.44240719 63.8719013 213.44391212 66.31290265 213.44540405 68.75396729 C213.45003213 70.50171005 213.45505677 72.24945181 213.46044922 73.99719238 C213.47357999 78.75166639 213.48002 83.50612627 213.48445988 88.26061559 C213.48739072 91.23250153 213.49149565 94.20438362 213.49596405 97.17626762 C213.50964343 106.47851038 213.5193068 115.78074431 213.52316594 125.08299643 C213.52764191 135.81288808 213.54516652 146.54265203 213.57416654 157.27250487 C213.59581151 165.56989554 213.6058718 173.86725038 213.60720706 182.16466898 C213.60825347 187.11808487 213.61412576 192.07138081 213.63202667 197.02476692 C213.64855507 201.68937042 213.65063976 206.35376442 213.64188766 211.01838684 C213.64111972 212.725118 213.64542779 214.43186064 213.65534592 216.13856316 C213.75726685 234.77925873 209.29957996 245.38135281 196.13601685 258.74563599 C195.09206822 259.79095398 194.04559183 260.83375329 192.99667358 261.87408447 C191.40608931 263.4561067 189.83518334 265.05603086 188.26473999 266.65802002 C178.14799288 276.85038967 167.80526233 283.42809992 153.09333801 283.5327301 C152.08320145 283.52501083 151.07306488 283.51729156 150.03231812 283.50933838 C148.94330704 283.51310486 147.85429596 283.51687134 146.73228455 283.52075195 C144.38174803 283.52715838 142.03118558 283.52687901 139.6806488 283.52056694 C135.95553383 283.51141903 132.23091812 283.52172294 128.50582886 283.53718567 C119.25728665 283.57213206 110.00876008 283.5796133 100.76016235 283.5770874 C92.93474008 283.57522225 85.10963293 283.58915719 77.2842865 283.62556648 C73.6232538 283.63636535 69.96274303 283.62427786 66.30172729 283.61174011 C64.04655446 283.62064709 61.79138583 283.63072236 59.53622437 283.64215088 C58.02101952 283.62753563 58.02101952 283.62753563 56.47520447 283.61262512 C48.60950315 283.69190865 42.63676038 285.51675474 36.40927124 290.39044189 C31.11985211 297.23557254 30.85555549 304.03251884 30.9312439 312.35479736 C30.92908371 313.45180969 30.92692352 314.54882202 30.92469788 315.67907715 C30.92162075 318.05037343 30.92518754 320.42168578 30.93471146 322.79296494 C30.94849601 326.55187931 30.94198433 330.31026848 30.92987061 334.06918335 C30.90092151 344.07914077 30.90117472 354.08900034 30.92012346 364.09897053 C30.93368634 371.31758999 30.92444015 378.53584341 30.8940239 385.75442886 C30.88859689 388.24139283 30.89261235 390.72839667 30.90642166 393.21532822 C30.92554604 396.6997542 30.91402335 400.18289235 30.89608765 403.66729736 C30.91609581 405.19349197 30.91609581 405.19349197 30.93650818 406.7505188 C30.85593128 413.82380012 29.23271302 419.22132766 25.28427124 425.14044189 C16.75038675 432.56121101 5.2571325 431.94854923 -5.41397095 431.37432861 C-11.28447431 430.77781374 -15.59202407 428.65797915 -19.37979126 424.16778564 C-23.08105637 418.63656543 -23.84027268 414.09831095 -23.84715652 407.47050095 C-23.85023548 406.46174651 -23.85023548 406.46174651 -23.85337663 405.43261319 C-23.85905147 403.16892436 -23.85758878 400.90529627 -23.85617065 398.64160156 C-23.85875401 397.00630442 -23.86176709 395.37100792 -23.86517406 393.73571229 C-23.87325074 389.23376663 -23.875034 384.73183691 -23.87577152 380.22988486 C-23.87762091 375.3776734 -23.88516765 370.52547023 -23.89190674 365.67326355 C-23.90549518 355.05966652 -23.91151553 344.44607327 -23.9159174 333.83246899 C-23.91867887 327.20703997 -23.92291604 320.58161242 -23.92742157 313.95618439 C-23.93961474 295.61722276 -23.94991407 277.27826231 -23.95329666 258.93929672 C-23.95351623 257.76530804 -23.95373579 256.59131935 -23.95396201 255.38175525 C-23.95418029 254.20493697 -23.95439857 253.02811869 -23.95462346 251.81563926 C-23.95506693 249.4309055 -23.95551349 247.04617174 -23.95596313 244.66143799 C-23.95618456 243.47852441 -23.95640599 242.29561084 -23.95663413 241.0768514 C-23.96058282 221.90600846 -23.97803877 202.73520351 -24.00132266 183.56437525 C-24.02502742 163.88843255 -24.03749811 144.21250893 -24.03866458 124.53655171 C-24.03958182 113.48661432 -24.04534638 102.43672644 -24.06348419 91.38680267 C-24.07887333 81.97818125 -24.08401264 72.56962463 -24.07574609 63.16099301 C-24.07183543 58.36004357 -24.07278949 53.55922468 -24.08680344 48.75829124 C-24.09951726 44.36258454 -24.09836701 39.96710683 -24.08621272 35.57140055 C-24.08425136 33.9818841 -24.08735441 32.39235157 -24.09605709 30.80285773 C-24.18607 13.25005652 -24.18607 13.25005652 -18.34072876 6.32794189 C-12.22967856 1.23540006 -7.85639692 0.0193547 0 0 Z " fill="#1F1F1F" transform="translate(403.7157287597656,82.85955810546875)"/>
<path d="M0 0 C2.07164948 0.00171353 4.14330113 0.00164296 6.21495056 -0.00012207 C10.54300871 0.00152589 14.87054561 0.02012899 19.19848633 0.05175781 C24.72852886 0.09145807 30.2578907 0.09579665 35.78804874 0.08829498 C40.06133692 0.08521654 44.3344739 0.09737653 48.60772514 0.11442566 C50.64614348 0.12142452 52.68457894 0.124584 54.72300911 0.12373352 C57.57745104 0.1255438 60.43109723 0.14702955 63.28540039 0.17382812 C64.11630188 0.17089752 64.94720337 0.16796692 65.80328369 0.16494751 C72.3610774 0.25929944 78.84370736 1.29679596 84.1171875 5.42578125 C84.64441406 6.07933594 85.17164063 6.73289063 85.71484375 7.40625 C86.26011719 8.05207031 86.80539062 8.69789063 87.3671875 9.36328125 C91.34424256 15.65385864 91.06281931 21.99597575 91.03804016 29.18830872 C91.04186571 30.36314825 91.04569126 31.53798779 91.04963273 32.74842852 C91.05815714 36.00119701 91.05773241 39.25382103 91.05345213 42.50659335 C91.05098382 46.01795235 91.06000045 49.52928487 91.06748962 53.04063416 C91.08023627 59.9169723 91.08203031 66.79327139 91.07968936 73.66961936 C91.0779058 79.2600789 91.07965666 84.8505266 91.0839138 90.44098473 C91.08450899 91.23687732 91.08510418 92.03276991 91.08571741 92.85278046 C91.08692917 94.46969567 91.08814331 96.08661089 91.08935978 97.7035261 C91.10023544 112.86616848 91.09807286 128.02878862 91.09197494 143.19143226 C91.08680723 157.05569804 91.09805729 170.91989352 91.11707316 184.78414539 C91.13645679 199.02593174 91.14470654 213.26768485 91.1409499 227.50948447 C91.13903847 235.50272827 91.14151971 243.49591225 91.15566444 251.48914528 C91.167586 258.29486749 91.16897457 265.1004931 91.15687428 271.90621666 C91.15099065 275.37671779 91.14987165 278.84704228 91.16187668 282.31753159 C91.17232415 286.08459818 91.16425867 289.85119081 91.15156555 293.61824036 C91.15893984 294.70852517 91.16631412 295.79880999 91.17391187 296.92213374 C91.12545468 303.76343708 90.85001687 311.03366557 86.17919618 316.44540817 C79.68422099 322.67062746 72.11618622 324.0454049 63.45898438 323.98193359 C62.11588448 323.98981903 62.11588448 323.98981903 60.74565125 323.99786377 C57.80811731 324.01098598 54.87113248 324.00235332 51.93359375 323.9921875 C49.87910865 323.99421047 47.82462425 323.99712376 45.7701416 324.00088501 C41.47315608 324.00529783 37.17635818 323.99891083 32.87939453 323.98486328 C27.3851045 323.96777215 21.8912542 323.97761891 16.39698029 323.99558067 C12.15721351 324.00644662 7.91755013 324.00295926 3.67778015 323.9951973 C1.65248054 323.99320307 -0.3728286 323.99562713 -2.39811707 324.00263596 C-5.23376155 324.01029674 -8.06870434 323.99858156 -10.90429688 323.98193359 C-11.73258499 323.98800629 -12.56087311 323.99407898 -13.41426086 324.00033569 C-20.17115027 323.92723697 -25.73345657 322.69574084 -31.03515625 318.21875 C-35.5417599 312.81082562 -37.34564773 308.59787517 -37.3512907 301.60769176 C-37.35451515 300.59734314 -37.3577396 299.58699452 -37.36106175 298.54602927 C-37.35951315 297.43797142 -37.35796455 296.32991356 -37.35636902 295.1882782 C-37.35863458 294.00965283 -37.36090013 292.83102746 -37.36323434 291.61668617 C-37.36847537 288.34417251 -37.36921822 285.07169334 -37.36803997 281.79917681 C-37.36783607 278.27010556 -37.37335368 274.74104253 -37.37809753 271.2119751 C-37.38640723 264.29727346 -37.38915253 257.38258035 -37.38970991 250.46787413 C-37.39018495 244.84731842 -37.39223909 239.22676553 -37.39541054 233.60621071 C-37.40421822 217.67275581 -37.40882977 201.73930764 -37.40808006 185.80585029 C-37.40804011 184.94670924 -37.40800015 184.0875682 -37.40795898 183.20239258 C-37.4079181 182.34220309 -37.40787722 181.4820136 -37.4078351 180.59575776 C-37.40742867 166.65566511 -37.41699728 152.71559947 -37.43109735 138.77551463 C-37.4454592 124.46374521 -37.45236763 110.15198897 -37.45150357 95.84021217 C-37.45117152 87.80453686 -37.45392211 79.76888987 -37.46468163 71.73322105 C-37.47378413 64.89118053 -37.47596396 58.04918115 -37.4691722 51.20713719 C-37.46590565 47.7166791 -37.46585516 44.22629997 -37.47452545 40.73584938 C-37.48221886 36.9505529 -37.47761792 33.16546458 -37.46989441 29.38017273 C-37.47503797 28.27880704 -37.48018154 27.17744135 -37.48548096 26.04270095 C-37.4553223 19.36558211 -37.09791108 13.87544595 -33.72265625 7.96875 C-24.01373357 -1.25472654 -12.54561669 -0.11004657 0 0 Z " fill="#FEFEFE" transform="translate(174.22265625,135.40625)"/>
<path d="M0 0 C0.91096436 -0.0065712 1.82192871 -0.0131424 2.76049805 -0.01991272 C5.78035566 -0.03964817 8.80016344 -0.05131131 11.82006836 -0.0612793 C12.85292906 -0.06535482 13.88578976 -0.06943035 14.94994926 -0.07362938 C20.42089513 -0.09449506 25.89181591 -0.10879244 31.36279297 -0.11816406 C36.99942409 -0.12920595 42.63565799 -0.16357897 48.27214909 -0.20333576 C52.61749476 -0.22955565 56.96274678 -0.23786087 61.3081646 -0.24144554 C63.38486845 -0.24630066 65.46156842 -0.25788379 67.53819466 -0.27648354 C70.45546457 -0.30098029 73.37172001 -0.29989025 76.2890625 -0.29296875 C77.13671677 -0.30577881 77.98437103 -0.31858887 78.85771179 -0.33178711 C86.08339086 -0.26974886 93.18299797 1.41204495 98.53491211 6.48950195 C103.16919794 14.46047358 103.52952724 20.49435837 103.4855957 29.68041992 C103.48966577 31.04614684 103.49501009 32.41187045 103.50152588 33.77758789 C103.51515629 37.47195747 103.50991797 41.16607459 103.50038862 44.86044836 C103.49276668 48.73730468 103.49984494 52.6141401 103.50454712 56.49099731 C103.50999862 63.00241962 103.50283038 69.51373971 103.48852539 76.02514648 C103.47221372 83.53635328 103.47747896 91.04731555 103.49400461 98.55851638 C103.5076532 105.02246014 103.50952229 111.4863306 103.5016886 117.95028412 C103.4970288 121.80421648 103.49634004 125.65803423 103.50629807 129.51195908 C103.51501425 133.13838288 103.50886182 136.76449409 103.4916153 140.3908844 C103.48580611 142.3440509 103.49462715 144.29724407 103.5039978 146.25039673 C103.44580355 154.36946552 103.06846022 162.20793318 97.47241211 168.55200195 C91.39938467 173.966262 83.48043992 174.62370761 75.68139648 174.58105469 C74.78745682 174.58791794 73.89351715 174.59478119 72.9724884 174.60185242 C70.04521375 174.62001307 67.11848048 174.61629882 64.19116211 174.6105957 C62.14050118 174.61516215 60.08984178 174.6204691 58.03918457 174.6264801 C53.75237794 174.63538975 49.46575784 174.63301193 45.17895508 174.62304688 C39.70151645 174.61155098 34.22472193 174.63178947 28.74736786 174.66096401 C24.51613314 174.67935903 20.28505192 174.6790271 16.05378723 174.67332649 C14.03488765 174.67317373 12.01597737 174.67918048 9.99711609 174.69161797 C7.16881505 174.70659137 4.34169333 174.69580502 1.51342773 174.67871094 C0.69030594 174.68837891 -0.13281586 174.69804687 -0.98088074 174.70800781 C-7.62267294 174.62447052 -13.74716907 172.9994274 -18.79354095 168.48560238 C-25.82473378 161.11546092 -25.20393453 152.32477855 -25.20898438 142.68945312 C-25.2166152 141.32534842 -25.22504427 139.96124798 -25.23420715 138.59715271 C-25.25606702 134.90692238 -25.26493942 131.21677486 -25.2700336 127.52648711 C-25.27368702 125.21657006 -25.27993213 122.90667438 -25.28703499 120.59676552 C-25.3114991 112.52576376 -25.32457497 104.454826 -25.328125 96.38378906 C-25.33175879 88.88046003 -25.36165044 81.37754039 -25.40352958 73.87433642 C-25.43830586 67.4154796 -25.4536747 60.95675802 -25.45437104 54.49780828 C-25.4551613 50.64762546 -25.46378384 46.79786029 -25.4923687 42.94777489 C-25.5186764 39.32368974 -25.52068508 35.70036481 -25.50471306 32.07622719 C-25.50205412 30.12677832 -25.52399489 28.17734339 -25.54690552 26.22802734 C-25.48399487 18.61447632 -24.51602964 12.42645422 -19.90258789 6.17700195 C-13.61091864 1.00248605 -8.02561127 0.02504003 0 0 Z " fill="#FEFEFE" transform="translate(459.902587890625,137.822998046875)"/>
</svg>
